<svg width="50" height="50" viewBox="0 0 50 50" fill="none" xmlns="http://www.w3.org/2000/svg">
<rect width="50" height="50" rx="10" fill="#3E54EB" fill-opacity="0.05"/>
<path d="M23 22C23 22.5523 22.5523 23 22 23C21.4477 23 21 22.5523 21 22C21 21.4477 21.4477 21 22 21C22.5523 21 23 21.4477 23 22Z" fill="#3E54EB"/>
<path d="M29 28C29 28.5523 28.5523 29 28 29C27.4477 29 27 28.5523 27 28C27 27.4477 27.4477 27 28 27C28.5523 27 29 27.4477 29 28Z" fill="#3E54EB"/>
<path d="M23.0542 15.6581C24.1755 14.7025 25.8246 14.7025 26.9459 15.6581L27.6285 16.2398C28.109 16.6493 28.7064 16.8967 29.3357 16.9469L30.2298 17.0183C31.6983 17.1355 32.8644 18.3016 32.9816 19.7701L33.053 20.6641C33.1032 21.2934 33.3506 21.8909 33.7601 22.3714L34.3418 23.054C35.2974 24.1752 35.2974 25.8244 34.3418 26.9457L33.7601 27.6283C33.3506 28.1088 33.1032 28.7062 33.053 29.3355L32.9816 30.2295C32.8644 31.698 31.6983 32.8642 30.2298 32.9814L29.3357 33.0527C28.7064 33.1029 28.109 33.3504 27.6285 33.7599L26.9459 34.3416C25.8246 35.2971 24.1755 35.2971 23.0542 34.3416L22.3716 33.7599C21.8911 33.3504 21.2937 33.1029 20.6644 33.0527L19.7704 32.9814C18.3018 32.8642 17.1357 31.698 17.0185 30.2295L16.9472 29.3355C16.897 28.7062 16.6495 28.1088 16.24 27.6283L15.6583 26.9457C14.7028 25.8244 14.7028 24.1752 15.6583 23.054L16.24 22.3714C16.6495 21.8909 16.897 21.2934 16.9472 20.6641L17.0185 19.7701C17.1357 18.3016 18.3018 17.1355 19.7704 17.0183L20.6644 16.9469C21.2937 16.8967 21.8911 16.6493 22.3716 16.2398L23.0542 15.6581Z" stroke="#3E54EB" stroke-width="1.5"/>
<path d="M22 28L28 22" stroke="#3E54EB" stroke-width="1.5" stroke-linecap="round"/>
</svg>
