<svg width="50" height="50" viewBox="0 0 50 50" fill="none" xmlns="http://www.w3.org/2000/svg">
<rect width="50" height="50" rx="10" fill="#3E54EB" fill-opacity="0.05"/>
<path d="M34 30.9668V23.1503C34 21.9394 33.4604 20.7925 32.5301 20.0265L27.5301 15.9093C26.0577 14.6969 23.9423 14.6969 22.4699 15.9093L17.4699 20.0265C16.5396 20.7925 16 21.9394 16 23.1503V30.9668C16 33.1943 17.7909 35 20 35H30C32.2091 35 34 33.1943 34 30.9668Z" stroke="#3E54EB" stroke-width="1.5" stroke-linecap="round" stroke-linejoin="round"/>
<path d="M25.4242 23H24.5758C24.1071 23 23.7273 23.3582 23.7273 23.8C23.7273 24.3056 23.1863 24.6271 22.7422 24.3853L22.6971 24.3608C22.2913 24.1399 21.7724 24.271 21.5381 24.6536L21.1138 25.3464C20.8795 25.729 21.0186 26.2183 21.4244 26.4392C21.8687 26.6811 21.8687 27.3189 21.4244 27.5608C21.0186 27.7817 20.8795 28.271 21.1138 28.6536L21.5381 29.3464C21.7724 29.729 22.2913 29.8601 22.6971 29.6392L22.7422 29.6147C23.1863 29.3729 23.7273 29.6944 23.7273 30.2C23.7273 30.6418 24.1071 31 24.5758 31H25.4242C25.8928 31 26.2727 30.6418 26.2727 30.2C26.2727 29.6944 26.8137 29.3729 27.2578 29.6147L27.3029 29.6392C27.7087 29.8601 28.2276 29.729 28.4619 29.3464L28.8862 28.6536C29.1205 28.271 28.9814 27.7817 28.5756 27.5608C28.1313 27.3189 28.1313 26.6811 28.5756 26.4392C28.9814 26.2183 29.1205 25.729 28.8862 25.3464L28.4619 24.6536C28.2276 24.271 27.7087 24.1399 27.3029 24.3608L27.2578 24.3853C26.8137 24.6271 26.2727 24.3056 26.2727 23.8C26.2727 23.3582 25.8928 23 25.4242 23Z" stroke="#3E54EB" stroke-width="1.5" stroke-linecap="round" stroke-linejoin="round"/>
<path d="M25.75 27C25.75 27.4142 25.4142 27.75 25 27.75C24.5858 27.75 24.25 27.4142 24.25 27C24.25 26.5858 24.5858 26.25 25 26.25C25.4142 26.25 25.75 26.5858 25.75 27Z" fill="#3E54EB"/>
</svg>
