<svg width="146" height="47" viewBox="0 0 146 47" fill="none" xmlns="http://www.w3.org/2000/svg">
<path fill-rule="evenodd" clip-rule="evenodd" d="M33.0433 25.2451C33.0781 25.0869 33.1131 24.9275 33.1223 24.7716C33.1995 24.308 33.1716 23.8723 33.1223 23.452C32.9888 22.6228 32.5608 21.9211 31.9078 21.4362C31.2543 20.9452 30.4612 20.6289 29.6682 20.4324C28.8745 20.2288 28.0809 20.1308 27.3371 20.0887C26.4592 20.0323 25.6377 20.0388 24.8862 20.0887V34.8616C26.3393 33.6958 27.723 32.4878 28.9725 31.2311C29.7804 30.4096 30.5598 29.5952 31.2406 28.7457C31.5707 28.3172 31.887 27.8892 32.1607 27.4606C32.4486 26.9904 32.61 26.7091 32.8136 26.1405C32.8766 25.9161 32.933 25.6917 32.9959 25.4738C33.0097 25.3982 33.0265 25.3218 33.0433 25.2451ZM10.3732 37.0027H22.0849C22.4358 36.7504 22.7866 36.4904 23.1309 36.2233V35.6831H10.3732V37.0027ZM10.3732 39.4038H18.483C19.1781 38.9824 19.8661 38.5401 20.5404 38.0842H10.3732V39.4038ZM10.3732 41.8055H14.221C15.0496 41.3977 15.8712 40.9489 16.6856 40.4853H10.3732V41.8055ZM10.7786 43.3181C10.8234 43.3007 10.8685 43.2832 10.914 43.2658C11.2298 43.1465 11.5456 43.02 11.862 42.8865H10.3732V43.4694C10.5105 43.4221 10.6435 43.3705 10.7786 43.3181ZM5.87258 44.6916C6.42046 44.5996 6.98859 44.4945 7.55069 44.3544C7.98636 44.2488 8.42148 44.1294 8.8566 43.9893V28.8021C8.28794 29.5038 7.67 30.3324 7.01705 31.2525C6.13256 32.4949 5.22673 33.9557 4.34226 35.5911C3.47145 37.2205 2.62857 39.0809 2.21425 41.0469C2.01776 42.002 1.9756 43.0479 2.31276 43.7365C2.48134 44.0731 2.7063 44.3051 3.04289 44.4803C3.38005 44.6417 3.8223 44.7474 4.3138 44.7753C4.81952 44.8032 5.31758 44.7682 5.87258 44.6916ZM16.9866 13.5941H9.67377V14.5201H16.9866V13.5941ZM16.9866 11.9368H9.67377V12.8628H16.9866V11.9368ZM16.9866 10.2789H9.67377V11.205H16.9866V10.2789ZM16.9866 8.62161H9.67377V9.5477H16.9866V8.62161ZM16.9866 6.96375H9.67377V7.88984H16.9866V6.96375ZM16.9866 5.30591H9.67377V6.23253H16.9866V5.30591ZM16.9866 3.64806H9.67377V4.57468H16.9866V3.64806ZM16.9866 1.99075H9.67377V2.91682H16.9866V1.99075ZM23.1309 17.7992V16.4796H10.3732V17.7992H23.1309ZM23.1309 34.6016V33.2814H10.3732V34.6016H23.1309ZM23.1309 32.2005V30.8803H10.3732V32.2005H23.1309ZM23.1309 29.7988V28.4786H10.3732V29.7988H23.1309ZM23.1309 26.0775H20.5382H10.3732V27.4048H23.1309V26.0775ZM23.1309 25.0031V23.683H10.3732V25.0031H23.1309ZM23.1309 22.602V21.2818H10.3732V22.602H23.1309ZM10.3732 20.2003H23.1309V18.8807H10.3732V20.2003ZM33.8946 21.521C34.2318 21.9983 34.4846 22.5598 34.6253 23.1422C34.7441 23.7251 34.8076 24.3365 34.7583 24.9188C34.7534 25.1285 34.725 25.3279 34.6963 25.5289C34.6837 25.6175 34.6711 25.7065 34.6603 25.7967C34.651 25.8936 34.6295 25.9876 34.6079 26.0826C34.5966 26.1321 34.5852 26.1818 34.5755 26.2324L34.5268 26.4426L34.506 26.5553L34.4918 26.604L34.4846 26.6325C34.4808 26.6475 34.4852 26.6382 34.4847 26.6426C34.4842 26.6464 34.4801 26.6604 34.4638 26.7091C34.344 27.1727 34.0424 27.8957 33.7616 28.3878C33.4809 28.9209 33.1503 29.42 32.8136 29.9187C32.1257 30.894 31.3742 31.8348 30.5384 32.727C28.8395 34.5731 26.9365 36.3213 24.8862 37.9436C24.3175 38.4 23.728 38.8494 23.1309 39.2774C23.0751 39.3267 23.0116 39.3693 22.9558 39.4038C22.45 39.7766 21.9306 40.1345 21.4106 40.4853C20.7369 40.9418 20.0555 41.3841 19.368 41.8055C19.2244 41.8993 19.077 41.9899 18.9311 42.0794C18.8702 42.1169 18.8095 42.1541 18.7495 42.1914C18.3429 42.43 17.928 42.6621 17.5137 42.8865C16.6642 43.3501 15.8011 43.7923 14.9232 44.2066C14.1016 44.593 13.2664 44.9581 12.4235 45.281C12.3739 45.2992 12.325 45.3185 12.2763 45.3377C12.1948 45.3699 12.1137 45.4019 12.03 45.4283C11.9392 45.4633 11.8478 45.4989 11.7563 45.5333C10.5418 45.9756 9.30596 46.327 8.0493 46.5798C7.42426 46.7134 6.79264 46.8048 6.15335 46.8891C5.51464 46.9591 4.81241 46.9876 4.13811 46.917C3.45066 46.8606 2.71997 46.692 2.03198 46.2919C1.344 45.9061 0.768206 45.2389 0.487429 44.5224C0.206103 43.8065 0.14316 43.1043 0.171069 42.4585C0.198992 41.8121 0.311739 41.2084 0.458971 40.6402C0.746859 39.5023 1.18254 38.4843 1.6527 37.5363C2.12338 36.5889 2.63568 35.711 3.15509 34.8966C4.18736 33.2601 5.28968 31.877 6.29402 30.6904C7.21353 29.6094 8.09801 28.7244 8.8566 28.0014V16.3318V0.990234H17.9844V15.4966H24.8862V19.4636C25.6234 19.3366 26.4455 19.2458 27.3437 19.2179C28.1373 19.1965 28.9867 19.2179 29.8855 19.3585C30.7842 19.5058 31.7535 19.7586 32.6664 20.3552C33.1087 20.6568 33.5575 21.029 33.8946 21.521ZM120.722 12.2681L127.947 30.8935C128.243 31.6436 128.579 32.147 128.954 32.4037C129.329 32.6405 129.675 32.7689 129.991 32.7886V33.3808C129.596 33.3413 129.112 33.3216 128.54 33.3216C127.967 33.3019 127.395 33.292 126.822 33.292C126.052 33.292 125.332 33.3019 124.661 33.3216C123.989 33.3216 123.446 33.3413 123.032 33.3808V32.7886C124.039 32.7491 124.68 32.5813 124.957 32.2852C125.233 31.9694 125.174 31.3081 124.779 30.3013L122.962 25.4451H115.801L114.593 28.5838C114.277 29.3735 114.089 30.0446 114.03 30.5974C113.971 31.1304 114.02 31.5548 114.178 31.8707C114.356 32.1865 114.642 32.4135 115.037 32.5517C115.451 32.6899 115.965 32.7689 116.577 32.7886V33.3808C116.024 33.3413 115.442 33.3216 114.83 33.3216C114.237 33.3019 113.685 33.292 113.171 33.292C112.678 33.292 112.253 33.3019 111.898 33.3216C111.563 33.3216 111.247 33.3413 110.951 33.3808V32.7886C111.345 32.6899 111.75 32.4629 112.165 32.1076C112.579 31.7325 112.954 31.1008 113.29 30.2124L120.248 12.2681H120.485H120.722ZM119.432 16.0134L122.74 24.8528H116.029L119.432 16.0134ZM42.229 12.4754C41.5578 12.4556 41.0149 12.4359 40.6003 12.4162V13.0084C41.2715 13.0281 41.7749 13.1071 42.1105 13.2453C42.4658 13.3637 42.7027 13.6006 42.8212 13.9559C42.9396 14.2915 42.9988 14.8245 42.9988 15.5549V30.2421C42.9988 30.9527 42.9396 31.4857 42.8212 31.841C42.7027 32.1964 42.4658 32.4333 42.1105 32.5517C41.7749 32.6702 41.2715 32.7491 40.6003 32.7886V33.3808C41.0149 33.3413 41.5578 33.3216 42.229 33.3216C42.9001 33.3019 43.5812 33.292 44.2721 33.292C45.4961 33.292 46.5423 33.3117 47.4109 33.3512C48.2795 33.371 48.9309 33.3808 49.3652 33.3808C50.8458 33.3808 52.1191 33.1341 53.1851 32.6405C54.2511 32.147 55.0604 31.4758 55.6132 30.627C56.1857 29.7584 56.4719 28.7615 56.4719 27.6363C56.4719 26.8269 56.2942 26.057 55.9389 25.3266C55.5836 24.5962 54.9617 23.9645 54.0734 23.4315C53.2048 22.8788 51.9908 22.5037 50.4312 22.3063V22.247C51.5367 21.9115 52.4152 21.4772 53.0666 20.9442C53.7378 20.3914 54.2116 19.7893 54.488 19.1379C54.7841 18.4667 54.9321 17.7856 54.9321 17.0947C54.9321 15.7326 54.409 14.6172 53.3627 13.7487C52.3165 12.8801 50.757 12.4458 48.6842 12.4458C48.3288 12.4458 47.7267 12.4556 46.8779 12.4754C46.0291 12.4951 45.1407 12.505 44.2129 12.505C43.5614 12.505 42.9001 12.4951 42.229 12.4754ZM46.1672 13.5118C46.4436 13.1762 47.0358 13.0084 47.9439 13.0084C49.4245 13.0084 50.4806 13.3835 51.1123 14.1336C51.7637 14.864 52.0895 15.9596 52.0895 17.4204C52.0895 18.2693 51.971 19.0688 51.7341 19.8189C51.4972 20.5493 51.0629 21.1416 50.4312 21.5956C49.7995 22.0299 48.9013 22.247 47.7366 22.247H45.7527V15.5549C45.7527 14.5284 45.8909 13.8474 46.1672 13.5118ZM45.7527 22.7504V30.2421C45.7527 30.933 45.8119 31.4561 45.9303 31.8114C46.0488 32.1668 46.2659 32.4037 46.5818 32.5221C46.8976 32.6406 47.3615 32.6998 47.9735 32.6998C49.9081 32.6998 51.3097 32.2556 52.1783 31.3673C53.0666 30.4592 53.5108 29.176 53.5108 27.5178C53.5108 25.9978 53.0962 24.8232 52.2671 23.9941C51.4578 23.165 50.1154 22.7504 48.24 22.7504H45.7527ZM66.3979 13.0084V12.4162C65.9438 12.4359 65.3714 12.4556 64.6804 12.4754C64.0092 12.4951 63.3282 12.505 62.6373 12.505C61.8674 12.505 61.1468 12.4951 60.4756 12.4754C59.8045 12.4556 59.2616 12.4359 58.847 12.4162V13.0084C59.5182 13.0281 60.0216 13.1071 60.3572 13.2453C60.7125 13.3637 60.9494 13.6006 61.0679 13.9559C61.1863 14.2915 61.2455 14.8245 61.2455 15.5549V30.2421C61.2455 30.9527 61.1863 31.4857 61.0679 31.841C60.9494 32.1964 60.7125 32.4333 60.3572 32.5517C60.0216 32.6702 59.5182 32.7491 58.847 32.7886V33.3808C59.2616 33.3413 59.8045 33.3216 60.4756 33.3216C61.1468 33.3019 61.8674 33.292 62.6373 33.292C63.3282 33.292 64.0092 33.3019 64.6804 33.3216C65.3714 33.3216 65.9438 33.3413 66.3979 33.3808V32.7886C65.7267 32.7491 65.2134 32.6702 64.8581 32.5517C64.5225 32.4333 64.2955 32.1964 64.1771 31.841C64.0586 31.4857 63.9994 30.9527 63.9994 30.2421V15.5549C63.9994 14.8245 64.0586 14.2915 64.1771 13.9559C64.2955 13.6006 64.5225 13.3637 64.8581 13.2453C65.2134 13.1071 65.7267 13.0281 66.3979 13.0084ZM85.1674 12.4162C85.0884 13.1663 85.0292 13.8967 84.9897 14.6074C84.97 15.2983 84.9601 15.8313 84.9601 16.2064C84.9601 16.6802 84.97 17.1243 84.9897 17.5389C85.0095 17.9534 85.0292 18.3186 85.049 18.6345H84.3679C84.2297 17.2526 84.0422 16.1669 83.8053 15.3773C83.5684 14.5679 83.1539 13.9855 82.5616 13.6302C81.9694 13.2749 81.0514 13.0972 79.8078 13.0972H78.2088V29.9459C78.2088 30.7356 78.2779 31.3278 78.4161 31.7226C78.574 32.1174 78.8701 32.3839 79.3044 32.5221C79.7387 32.6603 80.3704 32.7491 81.1995 32.7886V33.3808C80.6862 33.3413 80.0348 33.3216 79.2452 33.3216C78.4556 33.3019 77.656 33.292 76.8467 33.292C75.9583 33.292 75.1194 33.3019 74.3297 33.3216C73.5598 33.3216 72.938 33.3413 72.4642 33.3808V32.7886C73.2933 32.7491 73.925 32.6603 74.3593 32.5221C74.7936 32.3839 75.0799 32.1174 75.2181 31.7226C75.376 31.3278 75.455 30.7356 75.455 29.9459V13.0972H73.8559C72.632 13.0972 71.7141 13.2749 71.1021 13.6302C70.5099 13.9855 70.0953 14.5679 69.8584 15.3773C69.6216 16.1669 69.434 17.2526 69.2958 18.6345H68.6148C68.6543 18.3186 68.674 17.9534 68.674 17.5389C68.6937 17.1243 68.7036 16.6802 68.7036 16.2064C68.7036 15.8313 68.6839 15.2983 68.6444 14.6074C68.6247 13.8967 68.5753 13.1663 68.4963 12.4162C69.3254 12.4359 70.2237 12.4556 71.191 12.4754C72.178 12.4951 73.165 12.505 74.1521 12.505H76.8467H79.5117C80.4987 12.505 81.4858 12.4951 82.4728 12.4754C83.4598 12.4556 84.358 12.4359 85.1674 12.4162ZM112.886 13.0084V12.4162C112.59 12.4359 112.274 12.4556 111.939 12.4754C111.603 12.4951 111.179 12.505 110.665 12.505C110.152 12.505 109.599 12.4951 109.007 12.4754C108.415 12.4556 107.833 12.4359 107.26 12.4162V13.0084C108.089 13.0281 108.711 13.1663 109.126 13.4229C109.54 13.6598 109.757 14.0842 109.777 14.6962C109.817 15.2884 109.659 16.1274 109.303 17.2132L105.657 28.6762L101.397 15.4957C101.16 14.7258 101.061 14.1731 101.101 13.8375C101.16 13.5019 101.358 13.2847 101.693 13.186C102.049 13.0873 102.522 13.0281 103.115 13.0084V12.4162C102.7 12.4359 102.157 12.4556 101.486 12.4754C100.815 12.4951 100.094 12.505 99.3243 12.505C98.8308 12.505 98.3175 12.4951 97.7845 12.4754C97.2515 12.4556 96.8074 12.4359 96.452 12.4162V13.0084C96.7284 13.0281 97.0245 13.1564 97.3403 13.3933C97.6562 13.6302 97.9424 14.1336 98.1991 14.9035L98.9855 17.2367L95.3926 28.7085L91.0628 15.4957C90.8654 14.8838 90.7568 14.41 90.7371 14.0744C90.7371 13.719 90.8456 13.4624 91.0628 13.3045C91.2997 13.1466 91.6748 13.0479 92.188 13.0084V12.4162C91.8327 12.4359 91.3688 12.4556 90.7963 12.4754C90.2435 12.4951 89.6415 12.505 88.99 12.505C88.4373 12.505 87.8648 12.4951 87.2726 12.4754C86.7001 12.4556 86.2164 12.4359 85.8216 12.4162V13.0084C86.1375 13.0281 86.4928 13.1564 86.8876 13.3933C87.2824 13.6302 87.6082 14.1336 87.8648 14.9035L94.1424 33.5289H94.2608H94.3792H94.4977H94.6161L99.3323 18.2657L104.477 33.5289H104.595H104.714H104.832H104.95L110.547 15.5845C110.823 14.6765 111.188 14.0448 111.643 13.6894C112.097 13.3144 112.511 13.0873 112.886 13.0084ZM145.746 13.0084V12.4162C145.601 12.4258 145.451 12.4355 145.297 12.4452C145.136 12.4552 144.97 12.4653 144.798 12.4754C144.463 12.4951 144.038 12.505 143.525 12.505C143.012 12.505 142.459 12.4951 141.867 12.4754L141.037 12.4475L140.12 12.4162V13.0084C140.949 13.0281 141.591 13.1564 142.045 13.3933C142.499 13.6105 142.726 14.0152 142.726 14.6074C142.745 15.1996 142.479 16.0386 141.926 17.1243L138.149 24.6493L133.22 15.1996C132.924 14.6271 132.836 14.183 132.954 13.8671C133.072 13.5512 133.319 13.3341 133.694 13.2157C134.069 13.0972 134.504 13.038 134.997 13.038V12.4162C134.365 12.4556 133.675 12.4852 132.924 12.505H130.852C130.358 12.505 129.894 12.4951 129.46 12.4754C129.045 12.4556 128.641 12.4359 128.246 12.4162V13.038C128.463 13.038 128.7 13.1367 128.956 13.3341C129.233 13.5118 129.568 13.9658 129.963 14.6962L135.974 25.7936V30.2421C135.974 30.9527 135.915 31.4857 135.797 31.841C135.678 32.1964 135.441 32.4333 135.086 32.5517C134.75 32.6702 134.247 32.7491 133.576 32.7886V33.3808C133.99 33.3413 134.533 33.3216 135.204 33.3216C135.876 33.3019 136.596 33.292 137.366 33.292C138.057 33.292 138.738 33.3019 139.409 33.3216C140.1 33.3216 140.673 33.3413 141.127 33.3808V32.7886C140.455 32.7491 139.942 32.6702 139.587 32.5517C139.251 32.4333 139.024 32.1964 138.906 31.841C138.787 31.4857 138.728 30.9527 138.728 30.2421V24.8496L143.377 15.6438C143.831 14.7752 144.246 14.1435 144.621 13.7487C144.996 13.3341 145.371 13.0873 145.746 13.0084Z" fill="#3E54EB"/>
</svg>
