<svg width="50" height="50" viewBox="0 0 50 50" fill="none" xmlns="http://www.w3.org/2000/svg">
<rect width="50" height="50" rx="10" fill="#3E54EB" fill-opacity="0.05"/>
<ellipse cx="25" cy="29.5" rx="6" ry="2.5" stroke="#3E54EB" stroke-width="1.5" stroke-linejoin="round"/>
<circle cx="25" cy="21" r="3" stroke="#3E54EB" stroke-width="1.5" stroke-linejoin="round"/>
<path fill-rule="evenodd" clip-rule="evenodd" d="M19.4455 26.2617C18.2069 26.3133 17.0691 26.5364 16.1859 26.8897C15.6812 27.0915 15.2225 27.3507 14.8776 27.6768C14.5312 28.0045 14.25 28.4514 14.25 29.0002C14.25 29.5491 14.5312 29.996 14.8776 30.3236C15.2225 30.6498 15.6812 30.9089 16.1859 31.1108C16.6857 31.3107 17.267 31.469 17.902 31.578C17.4083 31.0455 17.0985 30.4506 17.0199 29.8197C16.9234 29.7872 16.831 29.7533 16.743 29.7181C16.3429 29.558 16.0694 29.3862 15.9083 29.2338C15.7498 29.084 15.75 29.0048 15.75 29.0003L15.75 29.0002L15.75 29.0002C15.75 28.9956 15.7498 28.9165 15.9083 28.7667C16.0694 28.6142 16.3429 28.4424 16.743 28.2824C16.946 28.2012 17.172 28.1268 17.4179 28.0611C17.8316 27.3712 18.5345 26.7562 19.4455 26.2617Z" fill="#3E54EB"/>
<path fill-rule="evenodd" clip-rule="evenodd" d="M32.9803 29.8197C32.9016 30.4506 32.5918 31.0455 32.0982 31.578C32.7331 31.469 33.3144 31.3107 33.8142 31.1108C34.3189 30.9089 34.7777 30.6498 35.1226 30.3236C35.469 29.996 35.7502 29.5491 35.7502 29.0002C35.7502 28.4514 35.469 28.0045 35.1226 27.6768C34.7777 27.3507 34.3189 27.0916 33.8142 26.8897C32.931 26.5364 31.7933 26.3133 30.5547 26.2617C31.4657 26.7562 32.1686 27.3712 32.5823 28.0611C32.8281 28.1268 33.0542 28.2012 33.2571 28.2824C33.6573 28.4424 33.9307 28.6142 34.0919 28.7667C34.2504 28.9165 34.2502 28.9956 34.2502 29.0002V29.0002V29.0003C34.2502 29.0048 34.2504 29.084 34.0919 29.2338C33.9307 29.3862 33.6573 29.558 33.2571 29.7181C33.1691 29.7533 33.0767 29.7872 32.9803 29.8197Z" fill="#3E54EB"/>
<path fill-rule="evenodd" clip-rule="evenodd" d="M29.5145 23.1522C29.2946 23.6126 29.0063 24.0341 28.6628 24.4036C29.0587 24.6243 29.5147 24.75 30.0001 24.75C31.5188 24.75 32.7501 23.5188 32.7501 22C32.7501 20.4812 31.5188 19.25 30.0001 19.25C29.8958 19.25 29.7929 19.2558 29.6916 19.2671C29.8637 19.7327 29.9684 20.231 29.9939 20.75C29.996 20.75 29.998 20.75 30.0001 20.75C30.6904 20.75 31.2501 21.3096 31.2501 22C31.2501 22.6904 30.6904 23.25 30.0001 23.25C29.8278 23.25 29.6637 23.2152 29.5145 23.1522Z" fill="#3E54EB"/>
<path fill-rule="evenodd" clip-rule="evenodd" d="M20.3084 19.2671C20.2072 19.2558 20.1043 19.25 20 19.25C18.4812 19.25 17.25 20.4812 17.25 22C17.25 23.5188 18.4812 24.75 20 24.75C20.4854 24.75 20.9414 24.6243 21.3372 24.4036C20.9937 24.0341 20.7055 23.6126 20.4856 23.1522C20.3363 23.2152 20.1722 23.25 20 23.25C19.3096 23.25 18.75 22.6904 18.75 22C18.75 21.3096 19.3096 20.75 20 20.75C20.002 20.75 20.0041 20.75 20.0061 20.75C20.0317 20.231 20.1364 19.7327 20.3084 19.2671Z" fill="#3E54EB"/>
</svg>
