<svg width="50" height="50" viewBox="0 0 50 50" fill="none" xmlns="http://www.w3.org/2000/svg">
<rect width="50" height="50" rx="10" fill="#3E54EB" fill-opacity="0.05"/>
<ellipse cx="23" cy="30.5" rx="7" ry="3.5" stroke="#3E54EB" stroke-width="1.5" stroke-linejoin="round"/>
<circle cx="23" cy="20" r="4" stroke="#3E54EB" stroke-width="1.5" stroke-linejoin="round"/>
<path fill-rule="evenodd" clip-rule="evenodd" d="M28.0448 23.2498C27.7228 23.7487 27.3287 24.1968 26.8774 24.5793C27.2319 24.6904 27.609 24.7502 28.0001 24.7502C30.0712 24.7502 31.7501 23.0713 31.7501 21.0002C31.7501 19.0445 30.2529 17.4384 28.3421 17.2656C28.6083 17.7846 28.8011 18.3474 28.9068 18.9404C29.6979 19.2891 30.2501 20.0802 30.2501 21.0002C30.2501 22.228 29.2668 23.226 28.0448 23.2498Z" fill="#3E54EB"/>
<path fill-rule="evenodd" clip-rule="evenodd" d="M31.9997 30.5565C31.9896 31.1707 31.8148 31.7608 31.5009 32.3111C31.8693 32.2097 32.2144 32.0923 32.5312 31.9603C33.1284 31.7115 33.6606 31.3961 34.055 31.0076C34.452 30.6165 34.7501 30.1066 34.7501 29.5002C34.7501 28.8937 34.452 28.3839 34.055 27.9928C33.6606 27.6043 33.1284 27.2889 32.5312 27.0401C31.5086 26.614 30.1907 26.3396 28.7495 26.2685C29.7517 26.7776 30.5702 27.4172 31.1352 28.1445C31.4329 28.2276 31.7072 28.3218 31.9543 28.4247C32.443 28.6283 32.7894 28.8517 33.0023 29.0614C33.2125 29.2684 33.2501 29.4163 33.2501 29.5002C33.2501 29.5841 33.2125 29.7319 33.0023 29.939C32.7961 30.1421 32.4645 30.3581 31.9997 30.5565Z" fill="#3E54EB"/>
</svg>
