<svg width="50" height="50" viewBox="0 0 50 50" fill="none" xmlns="http://www.w3.org/2000/svg">
<rect width="50" height="50" rx="10" fill="#3E54EB" fill-opacity="0.05"/>
<path d="M30 20.5V17C30 15.8954 29.1046 15 28 15H22C20.8954 15 20 15.8954 20 17V20.5M33 27C33 31.4183 29.4183 35 25 35C20.5817 35 17 31.4183 17 27C17 22.5817 20.5817 19 25 19C29.4183 19 33 22.5817 33 27ZM22.9961 25.1796L21.7523 25.3675C21.0325 25.4762 20.7451 26.3958 21.266 26.9236L22.166 27.8358C22.3728 28.0454 22.4672 28.3474 22.4184 28.6434L22.2059 29.9314C22.083 30.6767 22.8354 31.2451 23.4791 30.8932L24.5917 30.285C24.8473 30.1453 25.1527 30.1453 25.4083 30.285L26.5209 30.8932C27.1646 31.2451 27.917 30.6767 27.7941 29.9314L27.5816 28.6434C27.5328 28.3474 27.6272 28.0454 27.834 27.8358L28.7341 26.9236C29.2549 26.3958 28.9675 25.4762 28.2477 25.3675L27.0038 25.1796C26.718 25.1364 26.471 24.9497 26.3432 24.6805L25.7869 23.5086C25.465 22.8305 24.535 22.8305 24.2131 23.5086L23.6568 24.6805C23.529 24.9497 23.282 25.1364 22.9961 25.1796Z" stroke="#3E54EB" stroke-width="1.5" stroke-linecap="round" stroke-linejoin="round"/>
</svg>
